<!-- <?xml version="1.0" standalone="no"?>
<!DOCTYPE svg PUBLIC "-//W3C//DTD SVG 1.1//EN" "http://www.w3.org/Graphics/SVG/1.1/DTD/svg11.dtd">
<svg t="1725010675645" class="icon" viewBox="0 0 1024 1024" version="1.1"
    xmlns="http://www.w3.org/2000/svg" p-id="5747" width="256" height="256"
    xmlns:xlink="http://www.w3.org/1999/xlink">
    <path
        d="M830.72 449.706667A256 256 0 0 0 597.333333 298.666667a248.32 248.32 0 0 0-59.306666 7.68
213.333333 213.333333 0 0 0-384 85.333333A128 128 0 0 0 192 640h42.666667a170.666667 170.666667 0 0
0 0 21.333333A149.333333 149.333333 0 0 0 384 810.666667h391.253333a184.746667 184.746667 0 0 0
55.466667-360.96zM192 554.666667a42.666667 42.666667 0 0 1 0-85.333334 42.666667 42.666667 0 0 0
42.666667-42.666666 128 128 0 0 1 128-128 128 128 0 0 1 94.72 42.666666 256 256 0 0 0-113.493334
176.213334 148.906667 148.906667 0 0 0-64 37.12z m583.253333 170.666666H384a64 64 0 0 1 0-128
42.666667 42.666667 0 0 0 42.666667-42.666666 170.666667 170.666667 0 0 1 331.946666-55.04
42.666667
42.666667 0 0 0 33.28 28.586666 99.413333 99.413333 0 0 1-16.64 197.12z"
        p-id="5748"></path>
</svg> -->

<svg xmlns="http://www.w3.org/2000/svg" width="1em" height="1em" viewBox="0 0 24 24">
    <path fill="none" stroke="currentColor" stroke-linecap="round" stroke-linejoin="round" stroke-width="1"
        d="M9.5 18.004H6.657C4.085 18 2 15.993 2 13.517s2.085-4.482 4.657-4.482c.393-1.762 1.794-3.2 3.675-3.773c1.88-.572 3.956-.193 5.444 1c1.209.967 1.88 2.347 1.88 3.776m.144 10.779l-2.172 1.138a.392.392 0 0 1-.568-.41l.415-2.411l-1.757-1.707a.389.389 0 0 1 .217-.665l2.428-.352l1.086-2.193a.392.392 0 0 1 .702 0l1.086 2.193l2.428.352a.39.39 0 0 1 .217.665l-1.757 1.707l.414 2.41a.39.39 0 0 1-.567.411z" />
</svg>